HIERARCHY
ROOT pelvis
{
  OFFSET 0 100 0
  CHANNELS 6 Xposition Yposition Zposition Zrotation Xrotation Yrotation
  JOINT pelvis_right_femur
  {
    OFFSET -10.78128 -3.44521 -0.5502486
    CHANNELS 3 Zrotation Xrotation Yrotation
    JOINT right_femur_tibia
    {
      OFFSET -0.8047443 -44.0398 -0.1307829
      CHANNELS 3 Zrotation Xrotation Yrotation
      JOINT right_tibia_foot
      {
        OFFSET 3.006224 -47.83518 -5
        CHANNELS 3 Zrotation Xrotation Yrotation
        End Site
        {
          OFFSET 0 -5 15
        }
      }
    }
  }
  JOINT pelvis_left_femur
  {
    OFFSET 10.78128 -3.44521 -0.5502486
    CHANNELS 3 Zrotation Xrotation Yrotation
    JOINT left_femur_tibia
    {
      OFFSET 0.8047443 -44.0398 -0.1307829
      CHANNELS 3 Zrotation Xrotation Yrotation
      JOINT left_tibia_foot
      {
        OFFSET -4.370144 -48.10324 -4.275266
        CHANNELS 3 Zrotation Xrotation Yrotation
        End Site
        {
          OFFSET 0 -5 15
        }
      }
    }
  }
  JOINT pelvis_spine1
  {
    OFFSET 0 6.468898 -3.129235
    CHANNELS 3 Zrotation Xrotation Yrotation
    JOINT spine1
    {
      OFFSET 0 23.15396 4.99043
      CHANNELS 3 Zrotation Xrotation Yrotation
      JOINT spine2
      {
        OFFSET 0 20.79997 -5.064912
        CHANNELS 3 Zrotation Xrotation Yrotation
        JOINT neck
        {
          OFFSET 0 14.38658 9.616178
          CHANNELS 3 Zrotation Xrotation Yrotation
          End Site
          {
            OFFSET 0 20 0
          }
        }
      }
      JOINT right_manubrium
      {
        OFFSET -5.722621 16.35077 3.967754
        CHANNELS 3 Zrotation Xrotation Yrotation
        JOINT right_clavicle
        {
          OFFSET -13.16364 1.694482 -4.693211
          CHANNELS 3 Zrotation Xrotation Yrotation
          JOINT right_humerus
          {
            OFFSET -28.5034 -0.3100689 -2.792744
            CHANNELS 3 Zrotation Xrotation Yrotation
            JOINT right_radius
            {
              OFFSET -25.15693 0.02248979 -1.271978
              CHANNELS 3 Zrotation Xrotation Yrotation
              End Site
              {
                OFFSET -15 0 0
              }
            }
          }
        }
      }
      JOINT left_manubrium
      {
        OFFSET 5.722621 16.35077 3.967754
        CHANNELS 3 Zrotation Xrotation Yrotation
        JOINT left_clavicle
        {
          OFFSET 13.16364 1.694482 -4.693211
          CHANNELS 3 Zrotation Xrotation Yrotation
          JOINT left_humerus
          {
            OFFSET 29.39168 -1.063119 -2.237045
            CHANNELS 3 Zrotation Xrotation Yrotation
            JOINT left_radius
            {
              OFFSET 24.59957 -0.9528479 0.9047498
              CHANNELS 3 Zrotation Xrotation Yrotation
              End Site
              {
                OFFSET 15 -0 -0
              }
            }
          }
        }
      }
    }
  }
}
MOTION
Frames: 11
Frame Time: 0.0416666666667
28.48801 101.2439 267.5615 -0.3505909 -1.222479 0.5072999 3.200736 6.432149 9.001494 -0 22.83789 -0 7.901454 -14.6918 0.6528909 3.591295 -35.11281 0.02913144 -0 22.27556 -0 -7.819964 -11.63808 18.64616 0.9765575 -4.995374 9.187854 -2.330121 11.86559 -2.552097 1.79545 19.33122 3.828832 0.9709794 -15.68298 5.713513 0.6860597 -23.82075 11.67141 81.49762 21.86408 -6.070395 -0 0 24.89081 -27.45989 10.24898 15.13244 3.74183 -16.51966 -2.578517 -92.1018 21.32863 25.82299 0 0 -13.07173 -1.426015 4.222284 15.76905
30.02786 100.5312 274.7646 -0.3426345 -1.199348 0.6557536 2.984037 7.43485 9.087265 -0 27.46051 -0 9.73156 -13.082 -0.02820183 3.157483 -33.1746 -1.216212 -0 23.63801 -0 -7.321202 -11.35927 18.40071 0.8307404 -5.785101 9.18979 -2.2047 11.75122 -2.680245 2.081087 19.57571 3.622278 0.8772218 -15.58872 5.878288 0.5077416 -23.54793 10.98245 81.58121 21.34174 -6.145196 -0 0 24.80517 -27.37443 10.10929 14.85646 3.510052 -15.64368 -2.439621 -92.39625 21.68673 26.30988 0 0 -12.11877 -1.84187 4.032873 16.51555
31.39026 100.3473 282.0747 -0.348195 -1.213362 0.5470894 2.524534 8.338355 8.687392 -0 33.00483 -0 11.6143 -10.09476 -0.9957609 1.399956 -31.44408 -2.701315 -0 25.53943 -0 -6.889237 -10.97626 18.15766 0.4878513 -6.747236 9.412259 -1.970947 11.69473 -2.515708 2.338442 19.90458 3.397128 0.796486 -15.38852 5.979472 0.7120709 -22.67815 10.48889 82.10492 21.06462 -6.893861 -0 0 23.81024 -27.12534 10.08988 14.32109 3.53207 -15.07693 -2.187847 -92.34947 22.09523 26.35642 0 0 -11.69717 -2.063455 3.913216 16.95378
32.8245 100.8382 289.5153 -0.3164716 -1.124484 1.153064 2.287908 7.451634 7.641922 -0 39.79878 -0 13.35488 -6.74619 -2.360206 0.03061896 -28.40528 -3.732598 -0 27.71778 -0 -6.173894 -11.78526 17.92743 0.2746778 -7.746232 9.379255 -1.690929 11.7076 -2.377708 2.465478 20.18947 3.261557 0.6580716 -15.27323 6.084792 1.18469 -21.34649 10.24845 82.91964 21.01161 -8.277578 -0 0 22.00099 -26.65813 10.20158 13.5368 3.57064 -14.83569 -2.058689 -91.88215 22.58352 25.71561 0 0 -11.74479 -2.0964 3.841485 17.10706
34.15157 101.5151 296.3623 -0.262479 -0.9662649 2.237003 1.999734 5.095039 6.779099 -0 47.40003 -0 14.36967 -4.380449 -3.437556 -1.174661 -24.87764 -4.635777 -0 28.53643 -0 -5.239366 -13.60605 17.44918 -0.06284672 -8.37874 8.894042 -1.443386 11.69642 -2.459499 2.5405 20.48649 3.150361 0.4849274 -15.191 6.19388 1.807254 -20.1933 10.25452 83.82739 21.19554 -9.682046 -0 0 19.83279 -26.03778 10.43014 12.6871 3.547318 -15.07412 -2.14776 -90.90886 23.21521 24.25599 0 0 -12.05214 -1.980473 3.820958 17.08101
35.44715 102.581 302.7718 -0.2246699 -0.8488047 3.038161 2.215096 -0.04848609 6.199245 -0 54.38311 -0 14.31296 -3.739949 -4.405957 -2.000678 -21.09044 -5.21744 -0 27.67254 -0 -4.507712 -15.4789 16.93645 -0.3943726 -8.836939 7.968567 -1.187523 11.76205 -2.771295 2.573212 20.95231 3.135964 0.27824 -15.03098 6.412948 2.599766 -19.22269 10.34583 85.11152 21.52219 -11.03173 -0 0 17.80769 -25.24006 10.70048 11.86181 3.297569 -15.57465 -2.46616 -89.62424 23.94875 22.14937 0 0 -12.40024 -1.779587 3.84669 16.9555
36.66022 103.9666 308.8197 -0.1875783 -0.7277214 3.86174 2.810277 -7.182338 6.036899 -0 58.54376 -0 13.39057 -4.17324 -4.912977 -2.622827 -15.88901 -5.668464 -0 26.57585 -0 -4.090274 -16.81016 16.13041 -0.8876845 -8.943794 6.507958 -0.8626483 11.79304 -3.595558 2.601991 21.69526 3.176147 0.0667368 -14.68435 6.712274 3.098261 -18.69537 10.2742 86.19841 21.88028 -12.10381 -0 0 16.27402 -24.51177 10.9559 11.21487 3.076359 -16.2038 -3.052818 -88.14147 24.73517 19.48484 0 0 -12.82918 -1.501103 3.911545 16.74246
37.79832 105.1286 314.7002 -0.1327088 -0.5379994 5.150517 3.467211 -14.41096 6.119231 -0 59.06076 -0 11.99512 -4.426458 -5.848147 -2.908422 -11.08102 -6.030245 -0 23.93789 -0 -3.960023 -17.92404 15.15048 -1.340278 -9.419884 4.932604 -0.4910112 11.44983 -4.867765 2.578817 22.12813 3.404851 -0.1843185 -14.61128 7.212358 3.02227 -17.80547 9.831791 87.47355 22.08124 -13.46811 -0 0 15.29971 -23.90105 11.06079 10.77311 3.157522 -16.59691 -3.766614 -86.66166 25.50255 16.60535 0 0 -13.49141 -1.162027 4.044575 16.39068
38.75668 105.8246 320.02 -0.07467304 -0.3191144 6.630968 3.471468 -19.83247 5.827765 -0 55.71111 -0 10.3155 -4.078192 -6.857476 -3.039545 -6.427465 -6.183871 -0 20.88504 -0 -4.000397 -18.9583 14.17203 -1.905325 -9.378135 3.542724 -0.06131524 11.10953 -6.197644 2.652216 22.63353 3.496226 -0.3630563 -14.44688 7.602791 2.555924 -17.11064 9.287737 88.45081 22.17117 -14.65473 -0 0 14.80453 -23.39495 11.01771 10.44179 3.530192 -17.3724 -4.504396 -84.86663 26.27302 13.23158 0 0 -14.58653 -0.7182413 4.274648 15.80144
39.65366 105.9599 325.3381 -0.02475243 -0.1114196 8.030123 2.584564 -24.6638 5.039859 -0 48.49556 -0 8.538175 -4.334436 -8.429224 -2.974642 -1.911314 -6.212043 -0 18.2263 -0 -4.07243 -20.09921 13.2339 -2.190938 -9.049787 2.542174 0.4197834 10.66965 -7.312716 2.727014 22.80356 3.465339 -0.5308703 -14.55939 7.81757 1.966435 -16.45568 8.698715 89.11233 22.1985 -15.79739 -0 0 14.35744 -22.9546 10.87356 10.06714 4.026751 -18.04234 -4.871577 -83.16947 26.89405 9.966177 0 0 -16.05748 -0.1259097 4.599962 14.99929
40.54945 105.4957 330.527 0.005033211 0.02343155 8.936215 1.284673 -28.19694 3.781335 -0 38.8005 -0 6.71909 -4.742906 -10.14148 -2.922218 2.213765 -6.15712 -0 16.40802 -0 -4.134887 -21.40225 12.45489 -2.437788 -8.304416 1.941235 0.8238077 10.05339 -8.010759 2.956624 22.83471 3.2679 -0.596609 -14.86996 7.923178 1.306604 -16.0652 8.297836 89.50654 22.23821 -16.60971 -0 0 13.79863 -22.49386 10.68695 9.540616 4.682926 -18.91692 -4.97929 -81.31278 27.39063 6.673306 0 0 -17.8411 0.6421113 5.058344 14.01363
